<?xml version="1.0" encoding="UTF-8"?>
<svg width="126px" height="72px" viewBox="0 0 126 72" version="1.1" xmlns="http://www.w3.org/2000/svg" xmlns:xlink="http://www.w3.org/1999/xlink">
    <title>Group 42</title>
    <defs>
        <polygon id="path-1" points="0 0.482465374 125.5345 0.482465374 125.5345 12.54253 0 12.54253"></polygon>
    </defs>
    <g id="Page-1" stroke="none" stroke-width="1" fill="none" fill-rule="evenodd">
        <g id="LeadsGen-Mockup" transform="translate(-968.000000, -1412.000000)">
            <g id="Group" transform="translate(894.000000, 1335.000000)">
                <g id="Group-42" transform="translate(74.000000, 77.000000)">
                    <path d="M6.58034,55.52352 L8.35354,52.22802 L28.24874,23.07422 C32.04864,23.47722 32.31514,26.70642 36.61684,26.70642 C41.20714,26.70642 41.20714,23.03392 45.79744,23.03392 C50.39164,23.03392 50.39164,26.70642 54.98584,26.70642 C59.16924,26.70642 59.54234,23.65922 63.04714,23.11582 L69.93454,32.42252 L79.77554,20.37412 C81.76844,20.65882 81.96344,22.38522 84.31254,22.38522 C86.87484,22.38522 86.87484,20.33382 89.43584,20.33382 C92.00204,20.33382 92.00204,22.38522 94.56824,22.38522 C96.81334,22.38522 97.09284,20.81482 98.84784,20.42222 L119.09534,49.17302 C119.09534,49.17302 100.47934,59.40142 85.25764,56.49852 C70.03464,53.59692 42.63584,45.04812 6.58034,55.52352" id="Fill-1" fill="#00C099"></path>
                    <path d="M81.91755,51.65394 C81.35725,51.65394 80.80605,51.38744 80.46415,50.88824 L49.20955,5.31024 C48.42955,4.17274 47.18935,3.51884 45.80745,3.51884 C44.42815,3.51884 43.18795,4.17274 42.40665,5.31024 L11.98015,49.68444 C11.42895,50.48784 10.33565,50.68934 9.53355,50.14204 C8.73145,49.59214 8.52865,48.49494 9.07595,47.69414 L39.50505,3.31864 C40.93115,1.24124 43.28675,0.00104 45.80745,0.00104 L45.80875,0.00104 C48.32945,0.00104 50.68505,1.24124 52.11115,3.31864 L83.36835,48.89924 C83.91565,49.70004 83.71285,50.79594 82.91075,51.34584 C82.60655,51.55384 82.25945,51.65394 81.91755,51.65394" id="Fill-3" fill="#114A5B"></path>
                    <path d="M115.60523,45.33048 C115.04493,45.33048 114.49373,45.06398 114.15183,44.56608 L91.78013,11.94128 C90.73623,10.41638 88.26623,10.41638 87.21843,11.94128 L76.33873,27.81038 C75.78883,28.61248 74.69553,28.81658 73.89213,28.26798 C73.08873,27.71808 72.88723,26.62218 73.43453,25.82138 L84.31683,9.95228 C85.48943,8.24278 87.42643,7.22228 89.49993,7.22228 C91.57473,7.22228 93.51043,8.24278 94.68173,9.95228 L117.05603,42.57578 C117.60333,43.37658 117.40053,44.47378 116.59843,45.02368 C116.29423,45.23038 115.94713,45.33048 115.60523,45.33048" id="Fill-5" fill="#114A5B"></path>
                    <path d="M54.98636,27.58626 C52.37986,27.58626 51.03176,26.50726 49.84096,25.55696 C48.73856,24.67426 47.78696,23.91246 45.79926,23.91246 C43.81286,23.91246 42.85996,24.67426 41.75756,25.55696 C40.56806,26.50726 39.22126,27.58626 36.61606,27.58626 C34.01476,27.58626 32.66796,26.50726 31.47976,25.55696 C30.50996,24.78086 29.67276,24.11006 28.15566,23.94886 C27.67336,23.89686 27.32236,23.46396 27.37436,22.98166 C27.42506,22.49676 27.85146,22.13796 28.34156,22.19906 C30.37086,22.41356 31.54476,23.35476 32.58086,24.18286 C33.68196,25.06686 34.63226,25.82606 36.61606,25.82606 C38.60246,25.82606 39.55666,25.06686 40.65776,24.18286 C41.84726,23.23126 43.19406,22.15226 45.79926,22.15226 C48.40316,22.15226 49.75126,23.22996 50.94206,24.18286 C52.04446,25.06686 52.99606,25.82606 54.98636,25.82606 C56.97406,25.82606 57.92826,25.06686 59.03066,24.18286 C59.99916,23.40676 61.10026,22.52666 62.91116,22.24716 C63.38176,22.18996 63.84196,22.50066 63.91606,22.97906 C63.99016,23.46006 63.66126,23.90986 63.18156,23.98396 C61.83346,24.19456 61.04306,24.82506 60.12916,25.55696 C58.93966,26.50726 57.59026,27.58626 54.98636,27.58626" id="Fill-7" fill="#114A5B"></path>
                    <path d="M94.5672,23.26467 C92.976,23.26467 92.131,22.58867 91.4524,22.04657 C90.8479,21.56167 90.4111,21.21327 89.4361,21.21327 C88.4637,21.21327 88.0282,21.56167 87.425,22.04657 C86.7451,22.58867 85.9014,23.26467 84.3128,23.26467 C82.7242,23.26467 81.8805,22.58867 81.2032,22.04657 C80.7092,21.65137 80.3205,21.34067 79.651,21.24317 C79.17,21.17557 78.8346,20.72837 78.9035,20.24997 C78.9737,19.76897 79.4313,19.44007 79.8993,19.50117 C81.0446,19.66627 81.7427,20.22397 82.303,20.67377 C82.9062,21.15607 83.3417,21.50447 84.3128,21.50447 C85.2852,21.50447 85.722,21.15607 86.3252,20.67247 C87.0038,20.12907 87.8475,19.45307 89.4361,19.45307 C91.0273,19.45307 91.8736,20.12907 92.5522,20.67247 C93.1567,21.15607 93.5922,21.50447 94.5672,21.50447 C95.5422,21.50447 95.979,21.15607 96.5848,20.67247 C97.11,20.25387 97.7054,19.77677 98.6557,19.56357 C99.1458,19.46607 99.6008,19.75987 99.7061,20.23047 C99.8114,20.70497 99.5137,21.17557 99.0392,21.28217 C98.4854,21.40567 98.1305,21.68907 97.682,22.04657 C97.0047,22.58867 96.1584,23.26467 94.5672,23.26467" id="Fill-9" fill="#114A5B"></path>
                    <g id="Group-13" transform="translate(0.000000, 45.715540)">
                        <mask id="mask-2" fill="white">
                            <use xlink:href="#path-1"></use>
                        </mask>
                        <g id="Clip-12"></g>
                        <path d="M1.75864,12.54253 C0.93964,12.54253 0.20514,11.96793 0.03484,11.13203 C-0.15756,10.18043 0.45864,9.25223 1.41154,9.05723 L25.95424,4.08863 C34.47834,2.36223 43.16364,2.12953 51.77484,3.40353 L79.81974,7.54793 C86.82154,8.58273 93.84154,8.20183 100.68214,6.42473 L123.33204,0.53963 C124.27714,0.29523 125.23264,0.85683 125.47834,1.79803 C125.72144,2.74053 125.15854,3.69993 124.21864,3.94563 L101.56874,9.82943 C94.26794,11.72873 86.78124,12.13043 79.30364,11.02933 L51.25874,6.88363 C43.05964,5.67723 34.77734,5.89563 26.65234,7.53883 L2.10964,12.50873 C1.99264,12.53213 1.87304,12.54253 1.75864,12.54253" id="Fill-11" fill="#114A5B" mask="url(#mask-2)"></path>
                    </g>
                    <path d="M18.32415,61.0129 L12.45985,61.0129 C11.97365,61.0129 11.57975,60.619 11.57975,60.1328 C11.57975,59.6466 11.97365,59.2527 12.45985,59.2527 L18.32415,59.2527 C18.81035,59.2527 19.20425,59.6466 19.20425,60.1328 C19.20425,60.619 18.81035,61.0129 18.32415,61.0129" id="Fill-14" fill="#114A5B"></path>
                    <path d="M25.94774,67.75665 L20.08344,67.75665 C19.59724,67.75665 19.20464,67.36275 19.20464,66.87655 C19.20464,66.39035 19.59724,65.99645 20.08344,65.99645 L25.94774,65.99645 C26.43394,65.99645 26.82784,66.39035 26.82784,66.87655 C26.82784,67.36275 26.43394,67.75665 25.94774,67.75665" id="Fill-16" fill="#114A5B"></path>
                    <path d="M32.40016,61.30618 L26.53586,61.30618 C26.04966,61.30618 25.65576,60.91228 25.65576,60.42608 C25.65576,59.93988 26.04966,59.54598 26.53586,59.54598 L32.40016,59.54598 C32.88636,59.54598 33.27896,59.93988 33.27896,60.42608 C33.27896,60.91228 32.88636,61.30618 32.40016,61.30618" id="Fill-18" fill="#114A5B"></path>
                    <path d="M43.25074,56.02753 L37.38384,56.02753 C36.89764,56.02753 36.50504,55.63493 36.50504,55.14743 C36.50504,54.66253 36.89764,54.26863 37.38384,54.26863 L43.25074,54.26863 C43.73694,54.26863 44.12954,54.66253 44.12954,55.14743 C44.12954,55.63493 43.73694,56.02753 43.25074,56.02753" id="Fill-20" fill="#114A5B"></path>
                    <path d="M46.18146,64.82541 L40.31716,64.82541 C39.83096,64.82541 39.43836,64.43151 39.43836,63.94531 C39.43836,63.45911 39.83096,63.06521 40.31716,63.06521 L46.18146,63.06521 C46.66896,63.06521 47.06156,63.45911 47.06156,63.94531 C47.06156,64.43151 46.66896,64.82541 46.18146,64.82541" id="Fill-22" fill="#114A5B"></path>
                    <path d="M59.67156,68.34451 L53.80726,68.34451 C53.32106,68.34451 52.92846,67.95061 52.92846,67.46441 C52.92846,66.97821 53.32106,66.58431 53.80726,66.58431 L59.67156,66.58431 C60.15776,66.58431 60.55166,66.97821 60.55166,67.46441 C60.55166,67.95061 60.15776,68.34451 59.67156,68.34451" id="Fill-24" fill="#114A5B"></path>
                    <path d="M58.20581,60.13319 L52.34021,60.13319 C51.85401,60.13319 51.46011,59.73929 51.46011,59.25309 C51.46011,58.76689 51.85401,58.37299 52.34021,58.37299 L58.20581,58.37299 C58.69201,58.37299 59.08591,58.76689 59.08591,59.25309 C59.08591,59.73929 58.69201,60.13319 58.20581,60.13319" id="Fill-26" fill="#114A5B"></path>
                    <path d="M72.20811,64.23755 L66.34381,64.23755 C65.85761,64.23755 65.46371,63.84365 65.46371,63.35745 C65.46371,62.87125 65.85761,62.47735 66.34381,62.47735 L72.20811,62.47735 C72.69431,62.47735 73.08691,62.87125 73.08691,63.35745 C73.08691,63.84365 72.69431,64.23755 72.20811,64.23755" id="Fill-28" fill="#114A5B"></path>
                    <path d="M83.42451,62.03873 L77.56021,62.03873 C77.07401,62.03873 76.68141,61.64483 76.68141,61.15863 C76.68141,60.67243 77.07401,60.27853 77.56021,60.27853 L83.42451,60.27853 C83.91071,60.27853 84.30461,60.67243 84.30461,61.15863 C84.30461,61.64483 83.91071,62.03873 83.42451,62.03873" id="Fill-30" fill="#114A5B"></path>
                    <path d="M80.12563,71.71515 L74.26133,71.71515 C73.77513,71.71515 73.38123,71.32125 73.38123,70.83505 C73.38123,70.34885 73.77513,69.95495 74.26133,69.95495 L80.12563,69.95495 C80.61183,69.95495 81.00573,70.34885 81.00573,70.83505 C81.00573,71.32125 80.61183,71.71515 80.12563,71.71515" id="Fill-32" fill="#114A5B"></path>
                    <path d="M91.12233,67.53708 L85.25803,67.53708 C84.77183,67.53708 84.37793,67.14318 84.37793,66.65698 C84.37793,66.17078 84.77183,65.77688 85.25803,65.77688 L91.12233,65.77688 C91.60853,65.77688 92.00243,66.17078 92.00243,66.65698 C92.00243,67.14318 91.60853,67.53708 91.12233,67.53708" id="Fill-34" fill="#114A5B"></path>
                    <path d="M101.45876,60.71845 L95.59446,60.71845 C95.10826,60.71845 94.71566,60.32455 94.71566,59.83835 C94.71566,59.35215 95.10826,58.95825 95.59446,58.95825 L101.45876,58.95825 C101.94496,58.95825 102.33886,59.35215 102.33886,59.83835 C102.33886,60.32455 101.94496,60.71845 101.45876,60.71845" id="Fill-36" fill="#114A5B"></path>
                    <path d="M105.19821,66.65724 L99.33391,66.65724 C98.84771,66.65724 98.45381,66.26334 98.45381,65.77714 C98.45381,65.29094 98.84771,64.89704 99.33391,64.89704 L105.19821,64.89704 C105.68441,64.89704 106.07831,65.29094 106.07831,65.77714 C106.07831,66.26334 105.68441,66.65724 105.19821,66.65724" id="Fill-38" fill="#114A5B"></path>
                    <path d="M117.73424,63.13814 L111.86994,63.13814 C111.38374,63.13814 110.99114,62.74424 110.99114,62.25804 C110.99114,61.77184 111.38374,61.37794 111.86994,61.37794 L117.73424,61.37794 C118.22044,61.37794 118.61434,61.77184 118.61434,62.25804 C118.61434,62.74424 118.22044,63.13814 117.73424,63.13814" id="Fill-40" fill="#114A5B"></path>
                </g>
            </g>
        </g>
    </g>
</svg>