<?xml version="1.0" encoding="UTF-8"?>
<svg width="99px" height="99px" viewBox="0 0 99 99" version="1.1" xmlns="http://www.w3.org/2000/svg" xmlns:xlink="http://www.w3.org/1999/xlink">
    <title>Group 40</title>
    <defs>
        <polygon id="path-1" points="0.65745 0.73815 4.71795 0.73815 4.71795 18 0.65745 18"></polygon>
    </defs>
    <g id="Page-1" stroke="none" stroke-width="1" fill="none" fill-rule="evenodd">
        <g id="LeadsGen-Mockup" transform="translate(-360.000000, -1387.000000)">
            <g id="Group" transform="translate(273.000000, 1335.000000)">
                <g id="Group-40" transform="translate(87.000000, 52.000000)">
                    <path d="M72.7212,49.18845 C72.7212,36.19095 62.1852,25.65645 49.1877,25.65645 C36.1902,25.65645 25.6542,36.19095 25.6542,49.18845 C25.6542,62.18595 36.1902,72.72195 49.1877,72.72195 C62.1852,72.72195 72.7212,62.18595 72.7212,49.18845" id="Fill-1" fill="#FFDE17"></path>
                    <path d="M49.18695,27.6846 C37.33095,27.6846 27.68445,37.3296 27.68445,49.1871 C27.68445,61.0461 37.33095,70.6896 49.18695,70.6896 C61.04445,70.6896 70.69095,61.0461 70.69095,49.1871 C70.69095,37.3296 61.04445,27.6846 49.18695,27.6846 M49.18695,74.7501 C35.09295,74.7501 23.62395,63.2841 23.62395,49.1871 C23.62395,35.0916 35.09295,23.6241 49.18695,23.6241 C63.28245,23.6241 74.75145,35.0916 74.75145,49.1871 C74.75145,63.2841 63.28245,74.7501 49.18695,74.7501" id="Fill-3" fill="#6D3815"></path>
                    <line x1="49.18695" y1="2.0307" x2="49.18695" y2="15.2322" id="Fill-5" fill="#FFDE17"></line>
                    <path d="M49.18695,17.26215 C48.06495,17.26215 47.15745,16.35465 47.15745,15.23115 L47.15745,2.02965 C47.15745,0.90765 48.06495,0.00015 49.18695,0.00015 C50.31045,0.00015 51.21795,0.90765 51.21795,2.02965 L51.21795,15.23115 C51.21795,16.35465 50.31045,17.26215 49.18695,17.26215" id="Fill-7" fill="#6D3815"></path>
                    <line x1="25.17675" y1="25.17825" x2="15.84075" y2="15.84225" id="Fill-9" fill="#FFDE17"></line>
                    <path d="M25.17675,27.20925 C24.65625,27.20925 24.13875,27.01125 23.74125,26.61525 L14.40675,17.27775 C13.61475,16.48575 13.61475,15.20025 14.40675,14.40675 C15.20025,13.61475 16.48575,13.61475 17.27775,14.40675 L26.61225,23.74275 C27.40425,24.53625 27.40425,25.82175 26.61225,26.61525 C26.21475,27.01125 25.69725,27.20925 25.17675,27.20925" id="Fill-11" fill="#6D3815"></path>
                    <line x1="82.5327" y1="15.8427" x2="73.1967" y2="25.1787" id="Fill-13" fill="#FFDE17"></line>
                    <path d="M73.19865,27.20925 C72.67815,27.20925 72.16065,27.01125 71.76315,26.61525 C70.97115,25.82175 70.97115,24.53625 71.76315,23.74275 L81.09765,14.40675 C81.88965,13.61475 83.17365,13.61475 83.96865,14.40675 C84.76065,15.20025 84.76065,16.48575 83.96865,17.27775 L74.63415,26.61525 C74.23665,27.01125 73.71915,27.20925 73.19865,27.20925" id="Fill-15" fill="#6D3815"></path>
                    <line x1="15.2319" y1="49.18845" x2="2.0289" y2="49.18845" id="Fill-17" fill="#FFDE17"></line>
                    <path d="M15.2319,51.21795 L2.0304,51.21795 C0.9084,51.21795 0.0009,50.31045 0.0009,49.18695 C0.0009,48.06495 0.9084,47.15745 2.0304,47.15745 L15.2319,47.15745 C16.3539,47.15745 17.2629,48.06495 17.2629,49.18695 C17.2629,50.31045 16.3539,51.21795 15.2319,51.21795" id="Fill-19" fill="#6D3815"></path>
                    <line x1="15.84135" y1="82.53345" x2="25.17735" y2="73.19745" id="Fill-21" fill="#FFDE17"></line>
                    <path d="M15.8427,84.5652 C15.3222,84.5652 14.8047,84.3657 14.4072,83.9712 C13.6152,83.1762 13.6152,81.8922 14.4072,81.0987 L23.7417,71.7642 C24.5337,70.9707 25.8177,70.9707 26.6127,71.7642 C27.4047,72.5562 27.4047,73.8417 26.6127,74.6337 L17.2782,83.9712 C16.8807,84.3657 16.3632,84.5652 15.8427,84.5652" id="Fill-23" fill="#6D3815"></path>
                    <line x1="49.18695" y1="83.14425" x2="49.18695" y2="96.34575" id="Fill-25" fill="#FFDE17"></line>
                    <g id="Group-29" transform="translate(46.500000, 80.375550)">
                        <mask id="mask-2" fill="white">
                            <use xlink:href="#path-1"></use>
                        </mask>
                        <g id="Clip-28"></g>
                        <path d="M2.68695,18.00015 C1.56495,18.00015 0.65745,17.09265 0.65745,15.96915 L0.65745,2.76765 C0.65745,1.64565 1.56495,0.73815 2.68695,0.73815 C3.81045,0.73815 4.71795,1.64565 4.71795,2.76765 L4.71795,15.96915 C4.71795,17.09265 3.81045,18.00015 2.68695,18.00015" id="Fill-27" fill="#6D3815" mask="url(#mask-2)"></path>
                    </g>
                    <line x1="82.5327" y1="82.53345" x2="73.1967" y2="73.19745" id="Fill-30" fill="#FFDE17"></line>
                    <path d="M82.5327,84.5652 C82.0122,84.5652 81.4947,84.3657 81.0972,83.9712 L71.7627,74.6337 C70.9707,73.8417 70.9707,72.5562 71.7627,71.7642 C72.5562,70.9707 73.8417,70.9707 74.6337,71.7642 L83.9682,81.0987 C84.7602,81.8922 84.7602,83.1762 83.9682,83.9712 C83.5707,84.3657 83.0532,84.5652 82.5327,84.5652" id="Fill-32" fill="#6D3815"></path>
                    <line x1="83.1435" y1="49.18845" x2="96.345" y2="49.18845" id="Fill-34" fill="#FFDE17"></line>
                    <path d="M96.3447,51.21795 L83.1432,51.21795 C82.0212,51.21795 81.1137,50.31045 81.1137,49.18695 C81.1137,48.06495 82.0212,47.15745 83.1432,47.15745 L96.3447,47.15745 C97.4667,47.15745 98.3757,48.06495 98.3757,49.18695 C98.3757,50.31045 97.4667,51.21795 96.3447,51.21795" id="Fill-36" fill="#6D3815"></path>
                    <path d="M33.9057,49.32825 L33.8562,49.32825 C32.7342,49.29975 31.8477,48.36825 31.8747,47.24925 C32.0802,39.00525 38.3997,32.54925 46.2657,32.54925 C47.3877,32.54925 48.2952,33.45825 48.2952,34.58025 C48.2952,35.70225 47.3877,36.60975 46.2657,36.60975 C40.6212,36.60975 36.0852,41.32725 35.9367,47.34825 C35.9082,48.45225 35.0037,49.32825 33.9057,49.32825" id="Fill-38" fill="#FFFFFF"></path>
                </g>
            </g>
        </g>
    </g>
</svg>