<?xml version="1.0" encoding="UTF-8"?>
<svg width="85px" height="80px" viewBox="0 0 85 80" version="1.1" xmlns="http://www.w3.org/2000/svg" xmlns:xlink="http://www.w3.org/1999/xlink">
    <title>Group 24</title>
    <defs>
        <polygon id="path-1" points="0.000308 0.86856 84.34426 0.86856 84.34426 78.54 0.000308 78.54"></polygon>
    </defs>
    <g id="Page-1" stroke="none" stroke-width="1" fill="none" fill-rule="evenodd">
        <g id="LeadsGen-Mockup" transform="translate(-679.000000, -1398.000000)">
            <g id="Group" transform="translate(581.000000, 1335.000000)">
                <g id="Group-24" transform="translate(98.000000, 63.000000)">
                    <path d="M75.842382,5.322548 L59.145702,12.729948 C56.720202,13.806408 53.951282,13.806408 51.525782,12.729948 L32.817862,4.429348 C30.390822,3.354428 27.623442,3.354428 25.197942,4.429348 L4.797562,13.479928 C3.148222,14.211428 2.082542,15.848448 2.082542,17.654868 L2.082542,71.256108 C2.082542,74.559408 5.482862,76.770848 8.501262,75.429508 L25.197942,68.023648 C27.623442,66.947188 30.390822,66.947188 32.817862,68.023648 L51.525782,76.322708 C53.951282,77.399168 56.720202,77.399168 59.145702,76.322708 L79.546082,67.273668 C81.196962,66.540628 82.259562,64.903608 82.259562,63.098728 L82.259562,9.495948 C82.259562,6.192648 78.860782,3.982748 75.842382,5.322548" id="Fill-1" fill="#D6F0FC"></path>
                    <g id="Group-5" transform="translate(0.000000, 0.672210)">
                        <mask id="mask-2" fill="white">
                            <use xlink:href="#path-1"></use>
                        </mask>
                        <g id="Clip-4"></g>
                        <path d="M29.007748,64.460704 C30.597028,64.460704 32.184768,64.790264 33.661628,65.446304 L52.369548,73.745364 C54.256048,74.580044 56.416668,74.580044 58.300088,73.745364 L78.700468,64.694784 C79.596748,64.295924 80.177328,63.405804 80.177328,62.427904 L80.177328,8.823584 C80.177328,7.965804 79.764608,7.209664 79.046968,6.743044 C78.327788,6.277964 77.470008,6.204044 76.687688,6.553624 L59.991008,13.964104 C57.031128,15.274644 53.640048,15.274644 50.680168,13.964104 L31.973788,5.661964 C30.087288,4.827284 27.928208,4.825744 26.043248,5.661964 L5.641328,14.712544 C4.746588,15.109864 4.169088,15.999984 4.169088,16.982504 L4.169088,70.586824 C4.169088,71.439984 4.580268,72.196124 5.296368,72.665824 C6.009388,73.127824 6.871788,73.201744 7.657188,72.852164 L24.355408,65.446304 C25.830728,64.790264 27.420008,64.460704 29.007748,64.460704 M55.335588,78.540924 C53.747848,78.540924 52.160108,78.212904 50.680168,77.556864 L31.973788,69.256264 C30.087288,68.421584 27.928208,68.418504 26.043248,69.256264 L9.346568,76.663664 C7.281428,77.579964 4.920608,77.393624 3.023328,76.158544 C1.129128,74.926544 0.000308,72.844464 0.000308,70.586824 L0.000308,16.982504 C0.000308,14.353724 1.551088,11.968264 3.951948,10.902584 L24.355408,1.853544 C27.310668,0.539924 30.707908,0.539924 33.661628,1.853544 L52.369548,10.152604 C54.256048,10.987284 56.416668,10.987284 58.300088,10.152604 L74.998308,2.743664 C77.060368,1.825824 79.427348,2.015244 81.320008,3.248784 C83.212668,4.480784 84.346108,6.564404 84.346108,8.823584 L84.346108,62.427904 C84.346108,65.053604 82.793788,67.439064 80.389848,68.504744 L59.991008,77.556864 C58.511068,78.212904 56.923328,78.540924 55.335588,78.540924" id="Fill-3" fill="#13516D" mask="url(#mask-2)"></path>
                    </g>
                    <path d="M28.92505,32.296726 C28.34909,32.296726 27.88247,31.830106 27.88247,31.254146 L27.88247,8.240386 C27.88247,7.664426 28.34909,7.197806 28.92505,7.197806 C29.50255,7.197806 29.96763,7.664426 29.96763,8.240386 L29.96763,31.254146 C29.96763,31.830106 29.50255,32.296726 28.92505,32.296726" id="Fill-6" fill="#13516D"></path>
                    <path d="M28.92505,62.362762 C28.34909,62.362762 27.88247,61.896142 27.88247,61.320182 L27.88247,45.937122 C27.88247,45.361162 28.34909,44.894542 28.92505,44.894542 C29.50255,44.894542 29.96763,45.361162 29.96763,45.937122 L29.96763,61.320182 C29.96763,61.896142 29.50255,62.362762 28.92505,62.362762" id="Fill-8" fill="#13516D"></path>
                    <path d="M55.380248,47.313112 C54.804288,47.313112 54.337668,46.846492 54.337668,46.270532 L54.337668,19.094152 C54.337668,18.518192 54.804288,18.051572 55.380248,18.051572 C55.956208,18.051572 56.422828,18.518192 56.422828,19.094152 L56.422828,46.270532 C56.422828,46.846492 55.956208,47.313112 55.380248,47.313112" id="Fill-10" fill="#13516D"></path>
                    <path d="M55.380248,73.216374 C54.804288,73.216374 54.337668,72.749754 54.337668,72.173794 L54.337668,65.269974 C54.337668,64.694014 54.804288,64.227394 55.380248,64.227394 C55.956208,64.227394 56.422828,64.694014 56.422828,65.269974 L56.422828,72.173794 C56.422828,72.749754 55.956208,73.216374 55.380248,73.216374" id="Fill-12" fill="#13516D"></path>
                    <path d="M42.23758,32.73732 C42.15288,32.73732 42.06972,32.72654 41.9804,32.70498 C41.42446,32.56484 41.08566,31.99812 41.22888,31.43756 L41.31512,31.0926 C41.80176,29.5603 43.09844,28.6132 44.63844,28.6132 C44.9911,28.6132 45.3376,28.66402 45.66716,28.76412 C46.21848,28.93198 46.52802,29.5141 46.3617,30.06542 C46.19384,30.6152 45.6225,30.9232 45.0604,30.75842 C44.92796,30.71684 44.78474,30.69836 44.63844,30.69836 C44.40128,30.69836 43.6051,30.76766 43.31866,31.66702 L43.24628,31.95038 C43.12924,32.42316 42.7042,32.73732 42.23758,32.73732 L42.23758,32.73732 Z M48.52694,38.16274 C48.06648,38.16274 47.6476,37.85782 47.52132,37.39274 L46.43254,33.3718 C46.28162,32.8174 46.60964,32.24452 47.16558,32.0936 C47.73538,31.94884 48.29286,32.27224 48.44378,32.82664 L49.53256,36.84912 C49.68348,37.40352 49.35546,37.97486 48.79952,38.12732 C48.70866,38.15196 48.6178,38.16274 48.52694,38.16274 L48.52694,38.16274 Z M66.78672,40.3865 C66.63272,40.3865 66.47718,40.35108 66.33242,40.28024 C65.81498,40.02768 65.59784,39.40552 65.8504,38.88808 L67.20714,36.10684 C67.45816,35.58786 68.08956,35.3815 68.59776,35.62482 C69.1152,35.87738 69.33234,36.49954 69.07978,37.01698 L67.72304,39.79976 C67.5444,40.16936 67.17172,40.3865 66.78672,40.3865 L66.78672,40.3865 Z M40.17398,40.81308 C40.08774,40.81308 40.00304,40.8023 39.91526,40.78074 C39.35778,40.63906 39.02052,40.0708 39.16374,39.51178 L40.19554,35.4739 C40.33876,34.9195 40.90086,34.5807 41.4645,34.72392 C42.02044,34.8656 42.3577,35.43386 42.21448,35.99134 L41.18268,40.02922 C41.06256,40.50046 40.6406,40.81308 40.17398,40.81308 L40.17398,40.81308 Z M26.72516,41.20886 C26.52342,41.20886 26.32168,41.15188 26.14304,41.03176 C25.66718,40.7099 25.53782,40.0631 25.85968,39.58416 L26.09838,39.22996 C26.9654,37.9456 28.40992,37.17868 29.95916,37.17868 L30.22866,37.18638 C30.80462,37.21872 31.24198,37.71152 31.20964,38.28594 C31.17884,38.86036 30.7384,39.36856 30.11008,39.26692 L30.09314,39.26692 C29.09522,39.26692 28.30212,39.69042 27.8278,40.3942 L27.59064,40.7484 C27.3889,41.04716 27.05934,41.20886 26.72516,41.20886 L26.72516,41.20886 Z M37.22642,43.274 C35.98364,43.274 34.96878,42.8813 34.1803,42.17136 L32.96524,41.0795 C32.53558,40.69604 32.5017,40.03538 32.8867,39.6088 C33.27324,39.17914 33.9339,39.1468 34.35894,39.52872 L35.57092,40.62058 C36.10068,41.0949 36.67356,41.19346 37.0601,41.19346 C37.62528,41.19346 38.1612,41.64622 38.17198,42.2114 C38.1843,42.77812 37.8147,43.24782 37.24952,43.274 L37.22642,43.274 Z M50.70758,46.21232 C50.24712,46.21232 49.82824,45.90586 49.70196,45.44232 L48.61164,41.4183 C48.45918,40.86236 48.7872,40.28948 49.34314,40.1401 C49.90832,39.9938 50.47196,40.31874 50.62134,40.8716 L51.71166,44.89716 C51.86258,45.4531 51.53456,46.02444 50.98016,46.17536 C50.88776,46.19846 50.7969,46.21232 50.70758,46.21232 L50.70758,46.21232 Z M63.1323,47.88014 C62.97984,47.88014 62.8243,47.84626 62.67646,47.77542 C62.15902,47.52286 61.94496,46.89916 62.19752,46.38172 L64.02396,42.6349 C64.2796,42.119 64.911,41.9111 65.41766,42.15442 C65.93664,42.40698 66.14916,43.03068 65.8966,43.54812 L64.07016,47.2934 C63.88998,47.66454 63.5173,47.88014 63.1323,47.88014 L63.1323,47.88014 Z M22.05896,48.11576 C21.85876,48.11576 21.65548,48.05878 21.47684,47.93712 C20.99944,47.61526 20.87316,46.96846 21.19656,46.49106 L23.52966,43.0353 C23.85306,42.55944 24.5014,42.4347 24.97726,42.7581 C25.45466,43.07996 25.5794,43.72676 25.256,44.20416 L22.9229,47.65838 C22.72116,47.9556 22.39314,48.11576 22.05896,48.11576 L22.05896,48.11576 Z M52.88514,54.26036 C52.42468,54.26036 52.0058,53.9539 51.87952,53.49036 L50.79074,49.46634 C50.63982,48.9104 50.96784,48.33906 51.52224,48.18814 C52.08126,48.03876 52.65106,48.3637 52.80044,48.92118 L53.88922,52.9452 C54.04168,53.4996 53.71366,54.07248 53.15772,54.2234 C53.06532,54.24804 52.97446,54.26036 52.88514,54.26036 L52.88514,54.26036 Z M17.3943,55.02728 C17.19256,55.02728 16.98928,54.9703 16.81064,54.8471 C16.33478,54.52524 16.2085,53.87998 16.5319,53.40104 L18.86346,49.94682 C19.1884,49.46942 19.83674,49.34314 20.3126,49.66808 C20.78692,49.9884 20.9132,50.63674 20.5898,51.11568 L18.25824,54.5699 C18.0565,54.86558 17.72848,55.02728 17.3943,55.02728 L17.3943,55.02728 Z M59.48096,55.37532 C59.32696,55.37532 59.17296,55.34144 59.02512,55.26906 C58.50768,55.0165 58.29362,54.39434 58.54618,53.87844 L60.37108,50.13008 C60.62364,49.6111 61.25504,49.40474 61.76324,49.64806 C62.28068,49.90216 62.49628,50.52432 62.24372,51.04176 L60.41882,54.78858 C60.23864,55.15972 59.86596,55.37532 59.48096,55.37532 L59.48096,55.37532 Z M56.03752,59.5749 C54.7393,59.5749 53.56274,58.82184 53.04376,57.66222 C52.8066,57.13554 53.04376,56.518 53.5689,56.28546 C54.08942,56.0406 54.7085,56.28238 54.94412,56.8106 C55.1705,57.31264 55.68486,57.59292 56.04368,57.48974 C56.33936,57.48974 56.61656,57.3881 56.826,57.2033 C57.25566,56.82754 57.91324,56.8645 58.29824,57.29878 C58.67554,57.72998 58.63242,58.3891 58.20122,58.76948 C57.60986,59.28846 56.84602,59.5749 56.04676,59.5749 L56.03752,59.5749 Z" id="Fill-14" fill="#13516D"></path>
                    <path d="M9.085538,67.671604 C8.877638,67.671604 8.668198,67.610004 8.484938,67.482184 C8.016778,67.149544 7.902818,66.498124 8.232378,66.029964 L14.068978,57.743224 C14.403158,57.271984 15.049958,57.161104 15.522738,57.490664 C15.992438,57.821764 16.104858,58.473184 15.775298,58.942884 L9.940238,67.229624 C9.735418,67.516064 9.412018,67.671604 9.085538,67.671604" id="Fill-16" fill="#13516D"></path>
                    <path d="M14.922138,65.220232 C14.743498,65.220232 14.564858,65.175572 14.398538,65.080092 L8.563478,61.695172 C8.066058,61.405652 7.896658,60.768092 8.184638,60.270672 C8.474158,59.767092 9.113258,59.603852 9.609138,59.891832 L15.445738,63.276752 C15.941618,63.566272 16.112558,64.202292 15.823038,64.701252 C15.630538,65.035432 15.279418,65.220232 14.922138,65.220232" id="Fill-18" fill="#13516D"></path>
                    <path d="M67.29415,30.58363 C67.29415,28.26439 69.17449,25.87277 71.49219,25.24137 C73.80835,24.60843 75.68869,25.97595 75.68869,28.29365 C75.68869,30.61289 73.80835,33.00297 71.49219,33.63437 C69.17449,34.26885 67.29415,32.90133 67.29415,30.58363" id="Fill-20" fill="#FF0000"></path>
                    <path d="M72.599912,26.12764 C72.335032,26.12764 72.054752,26.16614 71.763692,26.24622 C69.907992,26.75288 68.335652,28.73948 68.335652,30.5844 C68.335652,31.34362 68.608232,31.96886 69.102572,32.3477 C69.638492,32.75426 70.386932,32.85898 71.216992,32.63106 C73.075772,32.1244 74.645032,30.1378 74.645032,28.29288 C74.645032,27.53212 74.372452,26.90688 73.881192,26.52958 C73.531612,26.2647 73.092712,26.12764 72.599912,26.12764 M70.393092,34.82864 C69.441372,34.82864 68.549712,34.54836 67.836692,34.00474 C66.815672,33.22242 66.252032,32.00736 66.252032,30.5844 C66.252032,27.78468 68.431132,24.99728 71.216992,24.23498 C72.669212,23.8392 74.098332,24.07482 75.143992,24.87254 C76.165012,25.65332 76.730192,26.86838 76.730192,28.29288 C76.730192,31.0926 74.551092,33.88 71.765232,34.6423 C71.301692,34.76704 70.841232,34.82864 70.393092,34.82864" id="Fill-22" fill="#13516D"></path>
                </g>
            </g>
        </g>
    </g>
</svg>