<?xml version="1.0" encoding="UTF-8"?>
<svg width="153px" height="37px" viewBox="0 0 153 37" version="1.1" xmlns="http://www.w3.org/2000/svg" xmlns:xlink="http://www.w3.org/1999/xlink">
    <title>Horizons</title>
    <g id="Page-1" stroke="none" stroke-width="1" fill="none" fill-rule="evenodd">
        <g id="LeadsGen-Mockup" transform="translate(-643.000000, -72.000000)" fill="#00C099" fill-rule="nonzero">
            <g id="Group-8" transform="translate(640.000000, 55.000000)">
                <g id="Group-2">
                    <path d="M12.22,52.78 C13.7933333,52.78 14.86,51.62 15.42,49.3 C16.38,45.3533333 17.1266667,42.02 17.66,39.3 C18.1666667,39.2733333 19.1133333,39.2066667 20.5,39.1 C22.58,38.94 24.5,38.7 26.26,38.38 C26.18,39.2866667 26.14,40.1933333 26.14,41.1 C26.14,44.8333333 26.9133333,47.7 28.46,49.7 C30.0066667,51.7 32.0733333,52.7 34.66,52.7 C37.6466667,52.7 40.46,51.0866667 43.1,47.86 C43.6066667,47.2466667 43.86,46.42 43.86,45.38 C43.86,44.82 43.76,44.38 43.56,44.06 C43.36,43.74 43.0866667,43.58 42.74,43.58 C42.34,43.58 41.98,43.7666667 41.66,44.14 C40.5133333,45.5266667 39.4866667,46.5066667 38.58,47.08 C37.6733333,47.6533333 36.6733333,47.94 35.58,47.94 C34.3266667,47.94 33.3533333,47.3533333 32.66,46.18 C31.9666667,45.0066667 31.62,43.02 31.62,40.22 C31.62,39.0733333 31.66,37.9666667 31.74,36.9 C38.4866667,34.34 41.86,29.7533333 41.86,23.14 C41.86,21.4333333 41.4733333,20.0533333 40.7,19 C39.9266667,17.9466667 38.8733333,17.42 37.54,17.42 C35.7266667,17.42 34.0866667,18.22 32.62,19.82 C31.1533333,21.42 29.9266667,23.5 28.94,26.06 C27.9533333,28.62 27.22,31.3666667 26.74,34.3 C25.54,34.4866667 24.1,34.62 22.42,34.7 L22.42,34.7 L18.5,34.9 C19.14,31.1133333 19.46,28.1133333 19.46,25.9 C19.46,23.3933333 18.9866667,21.5466667 18.04,20.36 C17.0933333,19.1733333 15.7533333,18.58 14.02,18.58 C12.18,18.58 10.3666667,19.1066667 8.58,20.16 C6.79333333,21.2133333 5.31333333,22.5533333 4.14,24.18 C3.47333333,25.1133333 3.14,25.9933333 3.14,26.82 C3.14,27.3533333 3.27333333,27.7933333 3.54,28.14 C3.80666667,28.4866667 4.12666667,28.66 4.5,28.66 C4.92666667,28.66 5.31333333,28.4333333 5.66,27.98 C8.00666667,24.86 10.1133333,23.3 11.98,23.3 C12.5933333,23.3 13.0866667,23.5266667 13.46,23.98 C13.8333333,24.4333333 14.02,25.2866667 14.02,26.54 C14.02,28.5133333 13.6733333,31.38 12.98,35.14 L12.98,35.14 L10.86,35.22 C9.68666667,35.2733333 8.84666667,35.5066667 8.34,35.92 C7.83333333,36.3333333 7.58,36.98 7.58,37.86 C7.58,38.5533333 7.78,39.0533333 8.18,39.36 C8.58,39.6666667 9.22,39.82 10.1,39.82 L10.1,39.82 L12.02,39.74 C11.4866667,42.2733333 10.7666667,45.3666667 9.86,49.02 C9.72666667,49.6333333 9.66,50.1133333 9.66,50.46 C9.66,52.0066667 10.5133333,52.78 12.22,52.78 Z M32.22,32.9 C32.5666667,30.7133333 33.0333333,28.7 33.62,26.86 C34.2066667,25.02 34.8266667,23.5666667 35.48,22.5 C36.1333333,21.4333333 36.7533333,20.9 37.34,20.9 C37.66,20.9 37.9266667,21.0733333 38.14,21.42 C38.3533333,21.7666667 38.46,22.2466667 38.46,22.86 C38.46,25.42 37.9533333,27.5133333 36.94,29.14 C35.9266667,30.7666667 34.3533333,32.02 32.22,32.9 Z M47.58,52.7 C49.4733333,52.7 51.1666667,52.0266667 52.66,50.68 C54.1533333,49.3333333 55.1533333,47.54 55.66,45.3 C57.58,45.22 59.34,44.9 60.94,44.34 C61.7133333,44.1 62.1,43.34 62.1,42.06 C62.1,41.5266667 62.0066667,41.0866667 61.82,40.74 C61.6333333,40.3933333 61.3666667,40.22 61.02,40.22 C60.86,40.22 60.6733333,40.2466667 60.46,40.3 C58.7266667,40.7533333 57.2333333,41.02 55.98,41.1 C55.7666667,39.0466667 55.04,37.32 53.8,35.92 C52.56,34.52 50.9266667,33.82 48.9,33.82 C47.2466667,33.82 45.74,34.2666667 44.38,35.16 C43.02,36.0533333 41.9533333,37.2933333 41.18,38.88 C40.4066667,40.4666667 40.02,42.2733333 40.02,44.3 C40.02,45.7933333 40.3133333,47.18 40.9,48.46 C41.4866667,49.74 42.3466667,50.7666667 43.48,51.54 C44.6133333,52.3133333 45.98,52.7 47.58,52.7 Z M47.9,48.46 C47.1266667,48.46 46.4533333,48.0733333 45.88,47.3 C45.3066667,46.5266667 45.02,45.4066667 45.02,43.94 C45.02,42.0733333 45.3733333,40.6266667 46.08,39.6 C46.7866667,38.5733333 47.6733333,38.06 48.74,38.06 L48.74,38.06 L48.94,38.06 C48.86,38.4866667 48.82,38.9133333 48.82,39.34 C48.82,40.3533333 49.04,41.3133333 49.48,42.22 C49.92,43.1266667 50.5533333,43.86 51.38,44.42 C51.1666667,45.7266667 50.7466667,46.7266667 50.12,47.42 C49.4933333,48.1133333 48.7533333,48.46 47.9,48.46 Z M61.5,52.7 C62.3266667,52.7 62.9333333,52.48 63.32,52.04 C63.7066667,51.6 64.0466667,50.7533333 64.34,49.5 C64.74,47.8733333 65.26,46.3266667 65.9,44.86 C66.54,43.3933333 67.1866667,42.2133333 67.84,41.32 C68.4933333,40.4266667 69.02,39.98 69.42,39.98 C69.7133333,39.98 69.86,40.1933333 69.86,40.62 C69.86,40.8066667 69.8333333,41.1666667 69.78,41.7 C69.7,42.1 69.66,42.5 69.66,42.9 C69.66,44.1266667 70.0266667,45.1 70.76,45.82 C71.4933333,46.54 72.5666667,46.9 73.98,46.9 C75.1,46.9 76.16,46.6266667 77.16,46.08 C78.16,45.5333333 79.0333333,44.8733333 79.78,44.1 C80.3133333,43.54 80.58,42.7666667 80.58,41.78 C80.58,41.2733333 80.48,40.8666667 80.28,40.56 C80.08,40.2533333 79.8066667,40.1 79.46,40.1 C79.0866667,40.1 78.7266667,40.2733333 78.38,40.62 C77.2066667,41.7933333 76.2466667,42.38 75.5,42.38 C74.8333333,42.38 74.5,41.9133333 74.5,40.98 C74.5,40.7133333 74.6066667,40.0466667 74.82,38.98 C75.06,37.6466667 75.18,36.8066667 75.18,36.46 C75.18,34.7266667 74.3133333,33.86 72.58,33.86 C71.7,33.86 70.7333333,34.1666667 69.68,34.78 C68.6266667,35.3933333 67.5533333,36.42 66.46,37.86 C65.3666667,39.3 64.38,41.1666667 63.5,43.46 C63.6066667,42.2866667 63.74,41.3 63.9,40.5 C64.06,39.7 64.2733333,38.7666667 64.54,37.7 C64.94,36.2066667 65.14,35.2466667 65.14,34.82 C65.14,34.4466667 65.0333333,34.1933333 64.82,34.06 C64.6066667,33.9266667 64.2333333,33.86 63.7,33.86 C62.7133333,33.86 61.9466667,34.04 61.4,34.4 C60.8533333,34.76 60.46,35.3266667 60.22,36.1 C59.2333333,39.22 58.74,42.5133333 58.74,45.98 C58.74,48.3266667 58.9466667,50.0333333 59.36,51.1 C59.7733333,52.1666667 60.4866667,52.7 61.5,52.7 Z M82.1,31.22 C83.2466667,31.22 84.1666667,30.9066667 84.86,30.28 C85.5533333,29.6533333 85.9,28.8066667 85.9,27.74 C85.9,26.86 85.5933333,26.18 84.98,25.7 C84.3666667,25.22 83.5666667,24.98 82.58,24.98 C81.4866667,24.98 80.5733333,25.2933333 79.84,25.92 C79.1066667,26.5466667 78.74,27.3266667 78.74,28.26 C78.74,29.1933333 79.02,29.92 79.58,30.44 C80.14,30.96 80.98,31.22 82.1,31.22 Z M81.78,52.7 C84.0733333,52.7 86.54,51.0866667 89.18,47.86 C89.6866667,47.2733333 89.94,46.4466667 89.94,45.38 C89.94,44.82 89.84,44.38 89.64,44.06 C89.44,43.74 89.1666667,43.58 88.82,43.58 C88.42,43.58 88.06,43.7666667 87.74,44.14 C86.54,45.58 85.58,46.6333333 84.86,47.3 C84.14,47.9666667 83.54,48.3 83.06,48.3 C82.5533333,48.3 82.1933333,48.0866667 81.98,47.66 C81.7666667,47.2333333 81.66,46.62 81.66,45.82 C81.66,44.78 81.98,42.7933333 82.62,39.86 C83.1266667,37.4333333 83.38,35.8866667 83.38,35.22 C83.38,34.3133333 82.7,33.86 81.34,33.86 C80.46,33.86 79.82,34.02 79.42,34.34 C79.02,34.66 78.7,35.2466667 78.46,36.1 C77.98,37.7266667 77.5866667,39.48 77.28,41.36 C76.9733333,43.24 76.82,44.78 76.82,45.98 C76.82,48.0066667 77.2133333,49.6333333 78,50.86 C78.7866667,52.0866667 80.0466667,52.7 81.78,52.7 Z M96.1,53.1 C98.42,53.1 100.506667,52.6333333 102.36,51.7 C104.213333,50.7666667 105.766667,49.4866667 107.02,47.86 C107.526667,47.1933333 107.78,46.3666667 107.78,45.38 C107.78,44.82 107.68,44.38 107.48,44.06 C107.28,43.74 107.006667,43.58 106.66,43.58 C106.26,43.58 105.9,43.7666667 105.58,44.14 C104.353333,45.66 102.973333,46.7933333 101.44,47.54 C99.9066667,48.2866667 98.3933333,48.66 96.9,48.66 C95.54,48.66 94.5133333,48.42 93.82,47.94 C93.1266667,47.46 92.78,46.8466667 92.78,46.1 C92.78,44.9266667 93.58,43.7466667 95.18,42.56 C96.78,41.3733333 98.7933333,40.26 101.22,39.22 C102.073333,38.8466667 102.7,38.42 103.1,37.94 C103.5,37.46 103.7,36.7933333 103.7,35.94 C103.7,35.1666667 103.56,34.5933333 103.28,34.22 C103,33.8466667 102.646667,33.66 102.22,33.66 C101.953333,33.66 101.626667,33.7133333 101.24,33.82 C100.853333,33.9266667 100.593333,33.9933333 100.46,34.02 C99.7133333,34.2333333 99.2066667,34.34 98.94,34.34 C98.1666667,34.34 97.2133333,34.3 96.08,34.22 C94.9466667,34.14 94.1666667,34.0866667 93.74,34.06 C91.6866667,33.8733333 90.0466667,33.78 88.82,33.78 C88.2866667,33.78 87.8666667,34.0266667 87.56,34.52 C87.2533333,35.0133333 87.1,35.58 87.1,36.22 C87.1,36.8333333 87.2533333,37.36 87.56,37.8 C87.8666667,38.24 88.3133333,38.4466667 88.9,38.42 L88.9,38.42 L95.46,38.26 C92.82,39.5133333 90.7933333,40.82 89.38,42.18 C87.9666667,43.54 87.26,45.1 87.26,46.86 C87.26,48.0333333 87.6133333,49.0933333 88.32,50.04 C89.0266667,50.9866667 90.0466667,51.7333333 91.38,52.28 C92.7133333,52.8266667 94.2866667,53.1 96.1,53.1 Z M111.46,52.7 C113.353333,52.7 115.046667,52.0266667 116.54,50.68 C118.033333,49.3333333 119.033333,47.54 119.54,45.3 C121.46,45.22 123.22,44.9 124.82,44.34 C125.593333,44.1 125.98,43.34 125.98,42.06 C125.98,41.5266667 125.886667,41.0866667 125.7,40.74 C125.513333,40.3933333 125.246667,40.22 124.9,40.22 C124.74,40.22 124.553333,40.2466667 124.34,40.3 C122.606667,40.7533333 121.113333,41.02 119.86,41.1 C119.646667,39.0466667 118.92,37.32 117.68,35.92 C116.44,34.52 114.806667,33.82 112.78,33.82 C111.126667,33.82 109.62,34.2666667 108.26,35.16 C106.9,36.0533333 105.833333,37.2933333 105.06,38.88 C104.286667,40.4666667 103.9,42.2733333 103.9,44.3 C103.9,45.7933333 104.193333,47.18 104.78,48.46 C105.366667,49.74 106.226667,50.7666667 107.36,51.54 C108.493333,52.3133333 109.86,52.7 111.46,52.7 Z M111.78,48.46 C111.006667,48.46 110.333333,48.0733333 109.76,47.3 C109.186667,46.5266667 108.9,45.4066667 108.9,43.94 C108.9,42.0733333 109.253333,40.6266667 109.96,39.6 C110.666667,38.5733333 111.553333,38.06 112.62,38.06 L112.62,38.06 L112.82,38.06 C112.74,38.4866667 112.7,38.9133333 112.7,39.34 C112.7,40.3533333 112.92,41.3133333 113.36,42.22 C113.8,43.1266667 114.433333,43.86 115.26,44.42 C115.046667,45.7266667 114.626667,46.7266667 114,47.42 C113.373333,48.1133333 112.633333,48.46 111.78,48.46 Z M136.66,52.7 C138.34,52.7 139.84,52.2466667 141.16,51.34 C142.48,50.4333333 143.713333,49.2733333 144.86,47.86 C145.366667,47.2733333 145.62,46.4466667 145.62,45.38 C145.62,44.82 145.52,44.38 145.32,44.06 C145.12,43.74 144.846667,43.58 144.5,43.58 C144.1,43.58 143.74,43.7666667 143.42,44.14 C142.193333,45.6066667 141.213333,46.6666667 140.48,47.32 C139.746667,47.9733333 139.113333,48.3 138.58,48.3 C137.806667,48.3 137.42,47.7666667 137.42,46.7 C137.42,45.9533333 137.673333,44.42 138.18,42.1 C138.766667,39.38 139.06,37.5 139.06,36.46 C139.06,34.7266667 138.193333,33.86 136.46,33.86 C135.58,33.86 134.613333,34.1666667 133.56,34.78 C132.506667,35.3933333 131.433333,36.42 130.34,37.86 C129.246667,39.3 128.26,41.1666667 127.38,43.46 C127.486667,42.2866667 127.62,41.3 127.78,40.5 C127.94,39.7 128.153333,38.7666667 128.42,37.7 C128.82,36.2066667 129.02,35.2466667 129.02,34.82 C129.02,34.4466667 128.913333,34.1933333 128.7,34.06 C128.486667,33.9266667 128.113333,33.86 127.58,33.86 C126.593333,33.86 125.826667,34.04 125.28,34.4 C124.733333,34.76 124.34,35.3266667 124.1,36.1 C123.113333,39.22 122.62,42.5133333 122.62,45.98 C122.62,48.3266667 122.826667,50.0333333 123.24,51.1 C123.653333,52.1666667 124.366667,52.7 125.38,52.7 C126.206667,52.7 126.813333,52.48 127.2,52.04 C127.586667,51.6 127.926667,50.7533333 128.22,49.5 C128.62,47.8733333 129.146667,46.3266667 129.8,44.86 C130.453333,43.3933333 131.093333,42.2133333 131.72,41.32 C132.346667,40.4266667 132.833333,39.98 133.18,39.98 C133.473333,39.98 133.62,40.1933333 133.62,40.62 C133.62,41.26 133.446667,42.42 133.1,44.1 C132.726667,46.02 132.54,47.3533333 132.54,48.1 C132.54,49.5933333 132.886667,50.7333333 133.58,51.52 C134.273333,52.3066667 135.3,52.7 136.66,52.7 Z M149.82,53.58 C151.02,53.58 152.086667,53.2733333 153.02,52.66 C153.953333,52.0466667 154.68,51.24 155.2,50.24 C155.72,49.24 155.98,48.18 155.98,47.06 C155.98,46.1266667 155.76,45.2666667 155.32,44.48 C154.88,43.6933333 154.233333,42.74 153.38,41.62 C152.793333,40.9 152.36,40.3 152.08,39.82 C151.8,39.34 151.66,38.9 151.66,38.5 C151.66,37.8333333 151.9,37.02 152.38,36.06 C152.566667,35.7133333 152.713333,35.3666667 152.82,35.02 C152.926667,34.6733333 152.98,34.42 152.98,34.26 C152.98,33.9666667 152.833333,33.7533333 152.54,33.62 C152.246667,33.4866667 151.726667,33.42 150.98,33.42 C149.38,33.42 148.326667,34.0066667 147.82,35.18 C147.02,37.02 146.373333,38.4733333 145.88,39.54 C145.386667,40.6066667 144.9,41.5266667 144.42,42.3 C143.673333,43.4733333 142.566667,44.9666667 141.1,46.78 L141.1,46.78 L140.58,47.42 C140.206667,47.8733333 140.02,48.3666667 140.02,48.9 C140.02,49.3533333 140.153333,49.7333333 140.42,50.04 C140.686667,50.3466667 141.033333,50.5 141.46,50.5 C141.993333,50.5 142.5,50.26 142.98,49.78 C143.94,48.8466667 144.826667,47.86 145.64,46.82 C146.453333,45.78 147.273333,44.4733333 148.1,42.9 C148.473333,43.3266667 148.873333,43.8266667 149.3,44.4 C149.726667,44.9733333 150.08,45.5666667 150.36,46.18 C150.64,46.7933333 150.793333,47.4466667 150.82,48.14 C150.58,48.1133333 150.226667,48.0666667 149.76,48 C149.293333,47.9333333 148.886667,47.9 148.54,47.9 C147.553333,47.9 146.806667,48.1533333 146.3,48.66 C145.793333,49.1666667 145.54,49.7666667 145.54,50.46 C145.54,51.26 145.906667,51.98 146.64,52.62 C147.373333,53.26 148.433333,53.58 149.82,53.58 Z" id="Horizons"></path>
                </g>
            </g>
        </g>
    </g>
</svg>